<svg width="48" height="170" viewBox="0 0 48 170" fill="none" xmlns="http://www.w3.org/2000/svg">
<mask id="mask0_0_1086" style="mask-type:alpha" maskUnits="userSpaceOnUse" x="-122" y="0" width="170" height="170">
<circle cx="-37" cy="85" r="85" fill="#5F74FF"/>
</mask>
<g mask="url(#mask0_0_1086)">
<circle cx="-2.57108" cy="6.26278" r="2.69442" fill="#5F74FF"/>
<circle cx="-2.57108" cy="21.2315" r="2.69442" fill="#5F74FF"/>
<circle cx="-2.5712" cy="35.6016" r="2.69442" fill="#5F74FF"/>
<circle cx="-2.5712" cy="49.9727" r="2.69442" fill="#5F74FF"/>
<circle cx="-2.57108" cy="64.9415" r="2.69442" fill="#5F74FF"/>
<circle cx="-2.5712" cy="79.3116" r="2.69442" fill="#5F74FF"/>
<circle cx="-2.57108" cy="93.682" r="2.69442" fill="#5F74FF"/>
<circle cx="-2.5712" cy="108.651" r="2.69442" fill="#5F74FF"/>
<circle cx="-2.57108" cy="123.022" r="2.69442" fill="#5F74FF"/>
<circle cx="-2.5712" cy="137.392" r="2.69442" fill="#5F74FF"/>
<circle cx="-2.5712" cy="152.36" r="2.69442" fill="#5F74FF"/>
<circle cx="-2.5712" cy="166.732" r="2.69442" fill="#5F74FF"/>
<circle cx="7.60848" cy="6.26278" r="2.69442" fill="#5F74FF"/>
<circle cx="7.60848" cy="21.2315" r="2.69442" fill="#5F74FF"/>
<circle cx="7.60848" cy="35.6026" r="2.69442" fill="#5F74FF"/>
<circle cx="7.60848" cy="49.9718" r="2.69442" fill="#5F74FF"/>
<circle cx="7.60848" cy="64.9415" r="2.69442" fill="#5F74FF"/>
<circle cx="7.60848" cy="79.3116" r="2.69442" fill="#5F74FF"/>
<circle cx="7.60848" cy="93.6817" r="2.69442" fill="#5F74FF"/>
<circle cx="7.60848" cy="108.651" r="2.69442" fill="#5F74FF"/>
<circle cx="7.60848" cy="123.022" r="2.69442" fill="#5F74FF"/>
<circle cx="7.60848" cy="137.392" r="2.69442" fill="#5F74FF"/>
<circle cx="7.60848" cy="152.36" r="2.69442" fill="#5F74FF"/>
<circle cx="7.60848" cy="166.732" r="2.69442" fill="#5F74FF"/>
<circle cx="18.3858" cy="6.26278" r="2.69442" fill="#5F74FF"/>
<circle cx="18.3858" cy="21.2315" r="2.69442" fill="#5F74FF"/>
<circle cx="18.3858" cy="35.6026" r="2.69442" fill="#5F74FF"/>
<circle cx="18.3858" cy="49.9718" r="2.69442" fill="#5F74FF"/>
<circle cx="18.3858" cy="64.9415" r="2.69442" fill="#5F74FF"/>
<circle cx="18.3858" cy="79.3116" r="2.69442" fill="#5F74FF"/>
<circle cx="18.3858" cy="93.6817" r="2.69442" fill="#5F74FF"/>
<circle cx="18.3858" cy="108.651" r="2.69442" fill="#5F74FF"/>
<circle cx="18.3858" cy="123.022" r="2.69442" fill="#5F74FF"/>
<circle cx="18.3858" cy="137.392" r="2.69442" fill="#5F74FF"/>
<circle cx="18.3858" cy="152.36" r="2.69442" fill="#5F74FF"/>
<circle cx="18.3858" cy="166.732" r="2.69442" fill="#5F74FF"/>
<circle cx="28.5655" cy="6.26278" r="2.69442" fill="#5F74FF"/>
<circle cx="28.5655" cy="21.2315" r="2.69442" fill="#5F74FF"/>
<circle cx="28.5655" cy="35.6026" r="2.69442" fill="#5F74FF"/>
<circle cx="28.5655" cy="49.9718" r="2.69442" fill="#5F74FF"/>
<circle cx="28.5655" cy="64.9415" r="2.69442" fill="#5F74FF"/>
<circle cx="28.5655" cy="79.3116" r="2.69442" fill="#5F74FF"/>
<circle cx="28.5655" cy="93.6817" r="2.69442" fill="#5F74FF"/>
<circle cx="28.5655" cy="108.651" r="2.69442" fill="#5F74FF"/>
<circle cx="28.5655" cy="123.022" r="2.69442" fill="#5F74FF"/>
<circle cx="28.5655" cy="137.392" r="2.69442" fill="#5F74FF"/>
<circle cx="28.5655" cy="152.36" r="2.69442" fill="#5F74FF"/>
<circle cx="28.5655" cy="166.732" r="2.69442" fill="#5F74FF"/>
<circle cx="39.3429" cy="6.26278" r="2.69442" fill="#5F74FF"/>
<circle cx="39.3429" cy="21.2315" r="2.69442" fill="#5F74FF"/>
<circle cx="39.3429" cy="35.6026" r="2.69442" fill="#5F74FF"/>
<circle cx="39.3429" cy="49.9718" r="2.69442" fill="#5F74FF"/>
<circle cx="39.3429" cy="64.9415" r="2.69442" fill="#5F74FF"/>
<circle cx="39.3429" cy="79.3116" r="2.69442" fill="#5F74FF"/>
<circle cx="39.3429" cy="93.6817" r="2.69442" fill="#5F74FF"/>
<circle cx="39.3429" cy="108.651" r="2.69442" fill="#5F74FF"/>
<circle cx="39.3429" cy="123.022" r="2.69442" fill="#5F74FF"/>
<circle cx="39.3429" cy="137.392" r="2.69442" fill="#5F74FF"/>
<circle cx="39.3429" cy="152.36" r="2.69442" fill="#5F74FF"/>
<circle cx="39.3429" cy="166.732" r="2.69442" fill="#5F74FF"/>
<circle cx="49.5205" cy="6.26278" r="2.69442" fill="#5F74FF"/>
<circle cx="49.5205" cy="21.2315" r="2.69442" fill="#5F74FF"/>
<circle cx="49.5206" cy="35.6016" r="2.69442" fill="#5F74FF"/>
<circle cx="49.5206" cy="49.9727" r="2.69442" fill="#5F74FF"/>
<circle cx="49.5205" cy="64.9415" r="2.69442" fill="#5F74FF"/>
<circle cx="49.5206" cy="79.3116" r="2.69442" fill="#5F74FF"/>
<circle cx="49.5205" cy="93.682" r="2.69442" fill="#5F74FF"/>
<circle cx="49.5206" cy="108.651" r="2.69442" fill="#5F74FF"/>
<circle cx="49.5205" cy="123.022" r="2.69442" fill="#5F74FF"/>
<circle cx="49.5206" cy="137.392" r="2.69442" fill="#5F74FF"/>
<circle cx="49.5206" cy="152.36" r="2.69442" fill="#5F74FF"/>
<circle cx="49.5206" cy="166.732" r="2.69442" fill="#5F74FF"/>
</g>
</svg>
