<svg width="24" height="24" viewBox="0 0 24 24" fill="none" xmlns="http://www.w3.org/2000/svg">
<g filter="url(#filter0_d_0_1009)">
<path d="M8.60004 1.40041L9.70689 1.0667C10.0722 0.956734 10.465 0.983414 10.8121 1.14176C11.1592 1.30011 11.4368 1.5793 11.5932 1.92727L12.3692 3.65298C12.5039 3.95237 12.5414 4.28641 12.4765 4.60822C12.4117 4.93004 12.2476 5.22345 12.0075 5.44727L10.8263 6.54784C10.668 6.69812 10.788 7.28384 11.3663 8.28612C11.9452 9.28898 12.3926 9.68555 12.5989 9.62384L14.1463 9.1507C14.46 9.05476 14.7958 9.05937 15.1067 9.16389C15.4176 9.26842 15.688 9.46761 15.88 9.73355L16.9829 11.2621C17.2057 11.5708 17.3088 11.9498 17.2732 12.3288C17.2375 12.7078 17.0656 13.061 16.7892 13.3227L15.9366 14.1301C15.6614 14.3908 15.3219 14.5737 14.9529 14.6604C14.5839 14.747 14.1985 14.7342 13.836 14.6233C12.0498 14.0764 10.3955 12.4536 8.85089 9.77755C7.30289 7.09755 6.71832 4.83698 7.12575 2.99012C7.20793 2.61798 7.38786 2.27449 7.64701 1.99506C7.90615 1.71562 8.23513 1.51035 8.60004 1.40041Z" fill="#F0E714"/>
</g>
<defs>
<filter id="filter0_d_0_1009" x="0" y="0" width="24" height="24" filterUnits="userSpaceOnUse" color-interpolation-filters="sRGB">
<feFlood flood-opacity="0" result="BackgroundImageFix"/>
<feColorMatrix in="SourceAlpha" type="matrix" values="0 0 0 0 0 0 0 0 0 0 0 0 0 0 0 0 0 0 127 0" result="hardAlpha"/>
<feOffset dy="4"/>
<feGaussianBlur stdDeviation="2"/>
<feComposite in2="hardAlpha" operator="out"/>
<feColorMatrix type="matrix" values="0 0 0 0 0 0 0 0 0 0 0 0 0 0 0 0 0 0 0.25 0"/>
<feBlend mode="normal" in2="BackgroundImageFix" result="effect1_dropShadow_0_1009"/>
<feBlend mode="normal" in="SourceGraphic" in2="effect1_dropShadow_0_1009" result="shape"/>
</filter>
</defs>
</svg>
